<svg width="1290" height="798" viewBox="0 0 1290 798" fill="none" xmlns="http://www.w3.org/2000/svg">
<path d="M1.40465 778.204C0.989334 776.049 0.0464573 773.411 0.0464573 770.785C-0.0208911 693.66 0.00155837 616.546 0.0127831 539.421C0.0127831 468.649 0.0464573 397.866 0.0352326 327.094C0.0352326 251.461 0.00155837 175.829 0.00155837 100.197C0.00155837 83.2028 0.259727 66.2198 0.0913562 49.2256C0.057682 45.7235 1.30363 43.9948 4.31185 43.0856C22.698 37.5406 40.9494 31.4793 59.5151 26.6526C76.1501 22.3199 93.0545 18.829 109.993 15.8994C133.25 11.8809 156.575 7.98592 180.035 5.47158C199.622 3.36133 219.423 2.82255 239.144 2.45213C267.622 1.92457 296.121 1.846 324.598 2.20519C343.366 2.44091 362.145 3.35011 380.868 4.74198C407.751 6.73998 434.645 8.82778 461.394 12.0717C483.843 14.7993 506.091 19.1994 528.417 22.9597C544.513 25.6761 560.733 27.9098 576.627 31.5803C593.094 35.3855 609.358 40.2458 625.455 45.4092C636.309 48.8888 646.299 49.596 657.602 45.9816C688.683 36.0477 720.405 28.3364 752.743 23.4424C783.69 18.7729 814.524 13.0819 845.605 9.63596C882.299 5.57261 919.15 2.39601 956.023 0.790872C987.093 -0.56732 1018.33 -0.0397583 1049.41 1.34088C1081.25 2.7552 1113.17 4.94402 1144.73 9.17574C1172.18 12.8575 1199.32 19.2555 1226.31 25.6312C1245.7 30.2109 1264.61 36.7998 1283.76 42.3673C1288.17 43.6469 1289.72 46.0041 1289.71 50.7858C1289.52 115.564 1289.53 180.342 1289.57 245.12C1289.61 316.61 1289.77 388.1 1289.81 459.59C1289.85 518.767 1289.76 577.955 1289.75 637.132C1289.75 680.257 1289.81 723.383 1289.75 766.508C1289.75 770.594 1288.99 774.691 1288.65 778.227C1269.38 773.984 1251.48 769.718 1233.44 766.16C1209.53 761.446 1185.56 757.124 1161.55 752.949C1125.13 746.607 1088.47 742.308 1051.5 741.32C1029.32 740.725 1007.08 739.726 984.938 740.59C958.144 741.634 931.373 743.958 904.681 746.64C879.695 749.155 854.832 752.78 829.924 756.069C819.059 757.506 808.249 759.336 797.406 760.907C784.7 762.759 771.836 763.859 759.298 766.474C738.521 770.807 717.924 775.993 697.304 781.044C687.37 783.48 677.47 786.163 667.727 789.272C661.217 791.348 655.054 794.525 648.634 796.916C646.714 797.634 644.189 798.038 642.348 797.399C632.032 793.84 622.009 789.373 611.57 786.252C595.518 781.437 579.343 776.936 563 773.265C546.511 769.561 529.764 766.968 513.118 763.983C502.858 762.142 492.587 760.346 482.283 758.797C469.408 756.866 456.534 754.902 443.603 753.476C408.604 749.615 373.617 745.439 338.528 742.543C316.067 740.702 293.45 740.624 270.899 740.287C230.142 739.681 189.699 743.879 149.425 749.559C124.383 753.095 99.3965 757.225 74.5674 762.029C50.4792 766.688 26.6154 772.547 1.39342 778.171L1.40465 778.204Z" fill="white"/>
</svg>
